<svg width="84" height="20" viewBox="0 0 84 20" fill="none" xmlns="http://www.w3.org/2000/svg">
<circle cx="8" cy="11" r="8" fill="url(#paint0_linear_3203_582)"/>
<path d="M21.832 7.03027C21.5723 7.03027 21.349 6.94596 21.1621 6.77734C20.9798 6.60872 20.8887 6.39453 20.8887 6.13477C20.8887 5.875 20.9798 5.65853 21.1621 5.48535C21.349 5.31217 21.5723 5.22559 21.832 5.22559C22.1009 5.22559 22.3288 5.31217 22.5156 5.48535C22.7025 5.65853 22.7959 5.875 22.7959 6.13477C22.7959 6.38086 22.7025 6.59277 22.5156 6.77051C22.3288 6.94368 22.1009 7.03027 21.832 7.03027ZM22.6182 15.5H21.0322V8.5H22.6182V15.5ZM30.9307 15.5H29.3447V11.5557C29.3447 10.2477 28.8822 9.59375 27.957 9.59375C27.474 9.59375 27.0752 9.77604 26.7607 10.1406C26.4463 10.5007 26.2891 10.9564 26.2891 11.5078V15.5H24.6963V8.5H26.2891V9.66211H26.3164C26.8405 8.77799 27.597 8.33594 28.5859 8.33594C29.347 8.33594 29.9281 8.58431 30.3291 9.08105C30.7301 9.57324 30.9307 10.2865 30.9307 11.2207V15.5ZM32.4346 15.2812V13.8115C33.027 14.2627 33.681 14.4883 34.3965 14.4883C35.3535 14.4883 35.832 14.2057 35.832 13.6406C35.832 13.4811 35.791 13.3467 35.709 13.2373C35.627 13.1234 35.5153 13.0231 35.374 12.9365C35.2373 12.8499 35.0732 12.7725 34.8818 12.7041C34.695 12.6357 34.4854 12.5583 34.2529 12.4717C33.9658 12.3577 33.7061 12.237 33.4736 12.1094C33.2458 11.9818 33.0544 11.8382 32.8994 11.6787C32.749 11.5146 32.6351 11.3301 32.5576 11.125C32.4801 10.9199 32.4414 10.6807 32.4414 10.4072C32.4414 10.07 32.5212 9.77376 32.6807 9.51855C32.8402 9.25879 33.0544 9.04232 33.3232 8.86914C33.5921 8.69141 33.8975 8.55924 34.2393 8.47266C34.5811 8.38151 34.9342 8.33594 35.2988 8.33594C35.946 8.33594 36.5247 8.43392 37.0352 8.62988V10.0176C36.543 9.68034 35.9779 9.51172 35.3398 9.51172C35.1393 9.51172 34.957 9.53223 34.793 9.57324C34.6335 9.61426 34.4967 9.67122 34.3828 9.74414C34.2689 9.81706 34.18 9.90592 34.1162 10.0107C34.0524 10.111 34.0205 10.2227 34.0205 10.3457C34.0205 10.4961 34.0524 10.6237 34.1162 10.7285C34.18 10.8333 34.2734 10.9268 34.3965 11.0088C34.5241 11.0863 34.6745 11.1592 34.8477 11.2275C35.0254 11.2913 35.2282 11.362 35.4561 11.4395C35.7568 11.5625 36.0257 11.6878 36.2627 11.8154C36.5042 11.943 36.7093 12.0889 36.8779 12.2529C37.0465 12.4124 37.1764 12.5993 37.2676 12.8135C37.3587 13.0231 37.4043 13.2738 37.4043 13.5654C37.4043 13.9209 37.3223 14.2308 37.1582 14.4951C36.9941 14.7594 36.7754 14.9782 36.502 15.1514C36.2285 15.3245 35.9118 15.4521 35.5518 15.5342C35.1963 15.6208 34.8203 15.6641 34.4238 15.6641C33.6582 15.6641 32.9951 15.5365 32.4346 15.2812ZM40.5283 14.4678H40.501V18.7197H38.915V8.5H40.501V9.73047H40.5283C41.0706 8.80078 41.8636 8.33594 42.9072 8.33594C43.7959 8.33594 44.4886 8.64811 44.9854 9.27246C45.4821 9.89681 45.7305 10.7354 45.7305 11.7881C45.7305 12.9548 45.4502 13.889 44.8896 14.5908C44.3291 15.2926 43.5635 15.6436 42.5928 15.6436C41.6995 15.6436 41.0114 15.2516 40.5283 14.4678ZM40.4873 11.7061V12.5742C40.4873 13.0846 40.6491 13.5176 40.9727 13.873C41.3008 14.2285 41.7155 14.4062 42.2168 14.4062C42.8047 14.4062 43.265 14.1784 43.5977 13.7227C43.9349 13.2624 44.1035 12.6221 44.1035 11.8018C44.1035 11.1136 43.9463 10.5758 43.6318 10.1885C43.3219 9.79655 42.9004 9.60059 42.3672 9.60059C41.8021 9.60059 41.3464 9.80111 41 10.2021C40.6582 10.6032 40.4873 11.1045 40.4873 11.7061ZM53.2773 12.4307H48.5059C48.5241 13.0778 48.7223 13.5768 49.1006 13.9277C49.4834 14.2786 50.0075 14.4541 50.6729 14.4541C51.4202 14.4541 52.1061 14.2308 52.7305 13.7842V15.0625C52.0924 15.4635 51.2493 15.6641 50.2012 15.6641C49.1712 15.6641 48.3623 15.3473 47.7744 14.7139C47.1911 14.0758 46.8994 13.1803 46.8994 12.0273C46.8994 10.9382 47.2207 10.0518 47.8633 9.36816C48.5104 8.68001 49.3125 8.33594 50.2695 8.33594C51.2266 8.33594 51.9671 8.64355 52.4912 9.25879C53.0153 9.87402 53.2773 10.7285 53.2773 11.8223V12.4307ZM51.7461 11.3096C51.7415 10.7399 51.6071 10.2979 51.3428 9.9834C51.0785 9.66439 50.7139 9.50488 50.249 9.50488C49.7933 9.50488 49.4059 9.67122 49.0869 10.0039C48.7725 10.3366 48.5788 10.7718 48.5059 11.3096H51.7461ZM58.4795 15.4248C58.1696 15.5798 57.7617 15.6572 57.2559 15.6572C55.8978 15.6572 55.2188 15.0055 55.2188 13.7021V9.74414H54.0498V8.5H55.2188V6.87988L56.8047 6.42871V8.5H58.4795V9.74414H56.8047V13.2441C56.8047 13.6589 56.8799 13.9551 57.0303 14.1328C57.1807 14.3105 57.4313 14.3994 57.7822 14.3994C58.0511 14.3994 58.2835 14.3219 58.4795 14.167V15.4248ZM63.9072 10.0107C63.7158 9.86035 63.4401 9.78516 63.0801 9.78516C62.6107 9.78516 62.2188 9.99707 61.9043 10.4209C61.5898 10.8447 61.4326 11.4212 61.4326 12.1504V15.5H59.8467V8.5H61.4326V9.94238H61.46C61.6149 9.4502 61.8519 9.06738 62.1709 8.79395C62.4945 8.51595 62.8545 8.37695 63.251 8.37695C63.5381 8.37695 63.7568 8.42025 63.9072 8.50684V10.0107ZM68.0088 15.6641C66.9287 15.6641 66.0651 15.3382 65.418 14.6865C64.7754 14.0303 64.4541 13.1621 64.4541 12.082C64.4541 10.9062 64.7891 9.98796 65.459 9.32715C66.1335 8.66634 67.0404 8.33594 68.1797 8.33594C69.2734 8.33594 70.1257 8.65723 70.7363 9.2998C71.347 9.94238 71.6523 10.8333 71.6523 11.9727C71.6523 13.0892 71.3219 13.9847 70.6611 14.6592C70.0049 15.3291 69.1208 15.6641 68.0088 15.6641ZM68.084 9.60059C67.4642 9.60059 66.9743 9.81706 66.6143 10.25C66.2542 10.6829 66.0742 11.2799 66.0742 12.041C66.0742 12.7747 66.2565 13.3535 66.6211 13.7773C66.9857 14.1966 67.4733 14.4062 68.084 14.4062C68.7083 14.4062 69.1868 14.1989 69.5195 13.7842C69.8568 13.3695 70.0254 12.7793 70.0254 12.0137C70.0254 11.2435 69.8568 10.6488 69.5195 10.2295C69.1868 9.81022 68.7083 9.60059 68.084 9.60059ZM79.5068 15.5H77.9209V11.5557C77.9209 10.2477 77.4583 9.59375 76.5332 9.59375C76.0501 9.59375 75.6514 9.77604 75.3369 10.1406C75.0225 10.5007 74.8652 10.9564 74.8652 11.5078V15.5H73.2725V8.5H74.8652V9.66211H74.8926C75.4167 8.77799 76.1732 8.33594 77.1621 8.33594C77.9232 8.33594 78.5042 8.58431 78.9053 9.08105C79.3063 9.57324 79.5068 10.2865 79.5068 11.2207V15.5ZM82.1045 15.6504C81.8311 15.6504 81.5986 15.5615 81.4072 15.3838C81.2158 15.2015 81.1201 14.985 81.1201 14.7344C81.1201 14.4792 81.2158 14.2604 81.4072 14.0781C81.5986 13.8958 81.8311 13.8047 82.1045 13.8047C82.3825 13.8047 82.6172 13.8958 82.8086 14.0781C83.0046 14.2604 83.1025 14.4792 83.1025 14.7344C83.1025 14.985 83.0046 15.2015 82.8086 15.3838C82.6172 15.5615 82.3825 15.6504 82.1045 15.6504Z" fill="white"/>
<defs>
<linearGradient id="paint0_linear_3203_582" x1="1.67638e-08" y1="11" x2="16" y2="11" gradientUnits="userSpaceOnUse">
<stop stop-color="#004EDF"/>
<stop offset="1" stop-color="#05FFFF"/>
</linearGradient>
</defs>
</svg>
